<?xml version="1.0" encoding="utf-8"?>
<!-- Generator: Adobe Illustrator 16.0.0, SVG Export Plug-In . SVG Version: 6.00 Build 0)  -->
<!DOCTYPE svg PUBLIC "-//W3C//DTD SVG 1.0//EN" "http://www.w3.org/TR/2001/REC-SVG-20010904/DTD/svg10.dtd">
<svg version="1.0" id="Layer_1" xmlns="http://www.w3.org/2000/svg" xmlns:xlink="http://www.w3.org/1999/xlink" x="0px" y="0px"
	 width="140px" height="48px" viewBox="0 0 140 48" enable-background="new 0 0 140 48" xml:space="preserve">
<g>
	<g>
		<g>
			<path fill="#034EA2" d="M10.394,23.471L2.166,35.174l10.393,7.116l-2.46-13.896C9.798,26.694,9.926,25.019,10.394,23.471z"/>
			<path fill="#034EA2" d="M31.18,24.695c0.34,1.93,0.134,3.826-0.499,5.544l8.553-12.176L22.327,6.491l-8.09,11.511
				c1.301-0.968,2.837-1.658,4.543-1.958C24.601,15.022,30.151,18.894,31.18,24.695z"/>
			<path fill="#034EA2" d="M15.801,36.052l1.701,9.621l1.572,1.076l8.48-12.075c-1.399,1.186-3.121,2.028-5.058,2.368
				C20.126,37.46,17.796,37.062,15.801,36.052z"/>
			<path fill="#ED1C24" d="M21.755,32.845c3.495-0.613,5.823-3.935,5.209-7.411c-0.614-3.478-3.949-5.801-7.44-5.189
				c-3.492,0.612-5.823,3.93-5.208,7.412C14.934,31.134,18.258,33.457,21.755,32.845z"/>
		</g>
		<g>
			<path fill="#FAA74A" d="M2.176,14.558c1.351,1.761,5.026,4.402,6.979,3.52c0.982-0.44,2.323-2.903-1.472-4.042
				c-1.297-0.392-1.808-1.141-2.688-2.171c-0.696-0.817-1.982-0.802-2.761-0.062C1.459,12.548,1.429,13.78,2.176,14.558
				L2.176,14.558z"/>
			<path fill="#FAA74A" d="M39.929,16.457c1.054-0.201,1.75-1.222,1.55-2.272c-0.209-1.062-0.939-1.665-2.297-1.534
				c-2.469,0.234-3.978,0.384-7.004,1.353c-1.11,0.354-1.257,1.618-0.735,2.559c0.533,0.936,1.05,1.248,2.519,0.912
				C33.962,17.475,37.994,16.781,39.929,16.457z"/>
			<path fill="#FAA74A" d="M28.993,1.602c-1.645,0.732-3.963,5.002-4.204,5.553c-0.241,0.553-1.245,2.467-0.426,3.557
				c0.426,0.57,1.386,1.383,2.894,0.633c1.522-0.76,0.976-3.661,4.133-6.308c0.846-0.715,1.132-1.878,0.492-2.748
				C31.415,1.646,30.48,0.94,28.993,1.602z"/>
			<path fill="#FAA74A" d="M11.238,3.944c0.519,3.511,1.79,6.277,2.253,6.971c0.651,0.974,1.514,2.085,2.898,1.619
				c1.636-0.549,1.37-2.089,0.7-3.405c-0.797-1.96-1.727-4.245-1.882-6.284c-0.126-1.102-1.133-1.912-2.253-1.785
				C10.752,1.313,11.238,3.944,11.238,3.944z"/>
		</g>
	</g>
	<g>
		<g>
			<path fill-rule="evenodd" clip-rule="evenodd" fill="#034EA2" d="M133.188,40.358c0.729-0.363,1.266-1.032,1.619-2l3.926-13.283
				h-1.869h-1.96h-3.453h-1.866h-1.963l-2.714,9.181c1.469,0.495,2.205,1.968,1.691,3.709c-0.358,1.206-1.239,2.286-2.343,3.001
				l-1.199,2.396c-0.19,0.423-0.539,0.664-1.06,0.726c0,0-0.934-0.235-1.202,1.562c-0.226,1.525,1.083,1.336,1.083,1.336l1.04,0.015
				c1.304,0,2.252-0.577,2.838-1.728l2.496-4.642h0.932l-1.21,4.094c-0.429,1.457,0.089,2.214,1.565,2.275h3.36
				c0,0,0.806,0.089,1.277-1.506c0.473-1.591-0.413-1.406-0.413-1.406h-1.121c-0.371,0-0.505-0.182-0.396-0.545L133.188,40.358z
				 M130.805,27.554h3.455l-0.604,1.739h-3.453L130.805,27.554z M131.23,37.155c-0.113,0.363-0.352,0.545-0.724,0.545h-2.899
				l0.556-1.748h3.455L131.23,37.155z M128.844,33.544l0.56-1.772h3.456l-0.563,1.772H128.844z"/>
			<path fill-rule="evenodd" clip-rule="evenodd" fill="#034EA2" d="M118.628,37.965c0.447-1.521,1.732-2.831,3.227-3.47
				c1.603-1.667,2.818-3.14,3.616-4.401c0.242-0.585,0.337-1.117,0.274-1.594c-0.143-0.41-0.546-0.615-1.207-0.615h-1.688
				l0.473-1.599c0.123-0.412,0.055-0.737-0.211-0.975c-0.339-0.176-0.714-0.265-1.112-0.265c-0.463,0-0.927,0.119-1.395,0.354
				c-0.316,0.178-0.568,0.473-0.761,0.885l-0.471,1.599h-1.488c-0.458,0-0.827,0.116-1.091,0.351
				c-0.31,0.357-0.511,0.712-0.623,1.064c-0.1,0.357-0.094,0.682,0.013,0.974c0.135,0.236,0.419,0.387,0.866,0.442h4.656
				c0.199,0-3.327,3.782-6.783,5.852c-1.114,0.412-1.523,1.121-1.225,2.126c0.094,0.352,0.313,0.619,0.656,0.798
				c0.213,0.175,0.577,0.175,1.09,0c0.501-0.354,0.954-0.65,1.358-0.887l-2.148,7.268c-0.106,0.352-0.017,0.619,0.264,0.794
				c0.211,0.179,0.546,0.271,1.011,0.271c0.461,0,0.891-0.092,1.272-0.271c0.446-0.175,0.727-0.442,0.826-0.794l1.387-4.699
				C118.574,40.475,118.228,39.301,118.628,37.965z"/>
			<path fill="#ED1C24" d="M121.629,40.763c1.605,0.058,3.328-1.146,3.854-2.694c0.524-1.546-0.352-2.847-1.956-2.906
				c-1.605-0.064-3.331,1.145-3.854,2.688C119.144,39.396,120.026,40.698,121.629,40.763z"/>
		</g>
		<path fill="#034EA2" d="M69.122,30.711h-2.433c-0.404-0.06-0.668-0.21-0.778-0.452c-0.145-0.365-0.157-0.755-0.044-1.18
			c0.116-0.424,0.295-0.754,0.538-0.998c0.342-0.364,0.721-0.544,1.14-0.544h2.429l0.54-1.993c0.188-0.482,0.428-0.819,0.716-0.999
			c0.411-0.181,0.826-0.27,1.248-0.27c0.482,0,0.812,0.089,1.005,0.27c0.296,0.244,0.388,0.574,0.268,0.999l-0.529,1.993h5.582
			l0.535-1.993c0.188-0.482,0.433-0.819,0.72-0.999c0.41-0.181,0.821-0.27,1.246-0.27c0.478,0,0.813,0.089,1.007,0.27
			c0.294,0.244,0.389,0.574,0.272,0.999l-0.536,1.993h2.523c0.342,0.062,0.569,0.213,0.688,0.451c0.144,0.364,0.16,0.761,0.045,1.18
			c-0.098,0.363-0.287,0.726-0.563,1.091c-0.322,0.298-0.663,0.452-1.023,0.452h-2.521l-1.479,5.492h3.779
			c0.347,0.06,0.577,0.209,0.688,0.452c0.146,0.364,0.162,0.756,0.046,1.18c-0.094,0.362-0.283,0.726-0.562,1.086
			c-0.32,0.306-0.661,0.456-1.021,0.456H63.097c-0.406-0.06-0.66-0.213-0.778-0.456c-0.143-0.36-0.161-0.755-0.042-1.179
			c0.114-0.421,0.292-0.754,0.535-0.997c0.341-0.362,0.72-0.542,1.139-0.542h3.694L69.122,30.711z M76.385,36.108l1.424-5.302
			h-5.354l-1.427,5.302H76.385z M68.346,40.506c0.498-0.044,1.006-0.031,1.524,0.035c0.598,0.059,0.96,0.2,1.075,0.418
			c0.208,0.248,0.162,0.474-0.148,0.687c-2.349,1.812-4.325,3.429-6.979,4.718c-0.48,0.202-0.971,0.287-1.485,0.251
			c-0.438-0.084-1.338-0.298-1.619-0.484c-0.29-0.232-0.452-0.485-0.492-0.761c-0.031-0.195,0.542-0.568,1.724-1.134
			c1.804-0.906,3.501-1.978,5.085-3.206C67.407,40.723,67.845,40.548,68.346,40.506z M74.309,42.506
			c-0.388-0.196-0.492-0.431-0.317-0.708c0.15-0.234,0.466-0.464,0.95-0.688c0.356-0.154,0.805-0.256,1.338-0.297
			c0.54-0.036,0.988,0.063,1.349,0.297c1.776,1.092,3.547,2.529,5.31,4.313c0.257,0.265,0.275,0.505,0.048,0.729
			c-0.408,0.234-0.813,0.407-1.22,0.511c-0.539,0.169-1.048,0.234-1.532,0.195c-0.464-0.076-0.875-0.235-1.235-0.472
			C77.186,44.68,75.625,43.389,74.309,42.506z"/>
		<path fill="#034EA2" d="M93.615,31.312h3.332c0.1,0.047,0.243,0.097,0.403,0.14c0.023,0.142,0.005,0.301-0.047,0.487
			c-0.035,0.135-0.102,0.278-0.195,0.412c-0.153,0.139-0.322,0.207-0.497,0.207h-3.325c-0.18,0-0.34-0.068-0.476-0.207
			c-0.019-0.134-0.008-0.299,0.042-0.481c0.035-0.141,0.105-0.276,0.197-0.418C93.191,31.358,93.379,31.312,93.615,31.312z
			 M92.928,33.557h3.412c0.108,0.046,0.24,0.094,0.405,0.14c0.02,0.139,0.005,0.298-0.042,0.481
			c-0.035,0.141-0.108,0.279-0.195,0.419c-0.16,0.139-0.325,0.207-0.5,0.207h-3.417c-0.176,0-0.337-0.068-0.473-0.207
			c-0.02-0.14-0.005-0.3,0.042-0.49c0.036-0.133,0.102-0.271,0.198-0.41C92.501,33.603,92.688,33.557,92.928,33.557z"/>
		<path fill="#034EA2" d="M102.979,31.312h3.327c0.107,0.047,0.242,0.097,0.405,0.14c0.021,0.142,0.007,0.301-0.041,0.487
			c-0.037,0.135-0.107,0.278-0.201,0.412c-0.153,0.139-0.321,0.207-0.492,0.207h-3.334c-0.176,0-0.334-0.068-0.471-0.207
			c-0.024-0.134-0.007-0.299,0.041-0.481c0.036-0.141,0.103-0.276,0.199-0.418C102.557,31.358,102.744,31.312,102.979,31.312z
			 M102.291,33.557h3.413c0.105,0.046,0.239,0.094,0.402,0.14c0.021,0.139,0.007,0.298-0.04,0.481
			c-0.038,0.141-0.104,0.279-0.2,0.419c-0.158,0.139-0.32,0.207-0.492,0.207h-3.422c-0.177,0-0.332-0.068-0.468-0.207
			c-0.026-0.14-0.013-0.3,0.037-0.49c0.037-0.133,0.104-0.271,0.2-0.41C101.865,33.603,102.054,33.557,102.291,33.557z"/>
		<path fill="#034EA2" d="M108.311,42.631c0.121-0.446,0.071-0.679-0.116-1.017c-0.111-0.206-0.554-0.322-0.869-0.322
			c-0.272,0-0.509,0.129-0.647,0.192l1.498-5.562H89.383l-1.728,6.423c-0.207,0.765-0.217,1.273-0.04,1.527
			c0.177,0.255,0.567,0.413,1.166,0.477h6.111l-0.206,0.768c-0.207,0.761-0.123,1.37,0.248,1.815c0.27,0.38,0.742,0.572,1.42,0.572
			c2.844,0,5.682,0,8.519,0c0.244,0,0.492,0,0.741,0c0.388-0.066,0.678-0.157,1.1-0.617
			C107.222,46.334,107.79,44.801,108.311,42.631z M96.311,39.058h-4.66l0.294-1.093h4.664L96.311,39.058z M95.503,42.082h-4.668
			l0.294-1.092H95.8L95.503,42.082z M99.817,37.969h4.665l-0.292,1.089h-4.666L99.817,37.969z M99.017,40.956h4.663l-0.297,1.086
			h-4.66L99.017,40.956z M104.496,45.116h-6.31c-0.309,0-0.168-0.506-0.065-0.768h5.341c0.775-0.002,1.755,0.066,2.104-0.315
			C105.565,44.033,105.402,45.116,104.496,45.116z"/>
		<path fill="#034EA2" d="M102.559,27.462h7.86v-0.003c0.621-0.005,1.261-0.515,1.43-1.139c0.168-0.632-0.199-1.146-0.828-1.146
			c-0.005,0-18.771,0.003-18.773,0.003c-0.626,0-1.277,0.511-1.449,1.146c-0.296,1.11,0.906,1.141,0.94,1.139h7.721l-0.27,1.015
			h-8.982l-1.383,5.146c0,0.003,0,0.003,0,0.005c-0.002,0-0.002,0.003-0.002,0.005v0.006l0,0c-0.2,0.756,0.242,1.365,0.998,1.365
			c0.757,0,1.533-0.616,1.733-1.376c0.012-0.026,0.888-3.29,0.888-3.29h6.244l-0.933,3.468h0.008c0,0.002,0,0.007,0,0.007
			c-0.229,0.857,0.274,1.554,1.124,1.554c0.856,0,1.734-0.696,1.965-1.554c0.003,0,0.003-0.005,0.003-0.007l0,0l0.93-3.468h6.153
			c0,0-0.883,3.278-0.888,3.29c-0.202,0.76,0.245,1.376,1,1.376c0.75,0,1.525-0.609,1.734-1.365h0.01l1.392-5.161h-8.897
			L102.559,27.462z"/>
		<path fill="#034EA2" d="M59.309,32.376c-0.046,0-0.823,0.019-0.823,0.019c-0.212,0-0.366-0.22-0.457-0.666l-1.175-6.554
			c0,0-12.229-0.002-12.246-0.002c-0.75,0-1.546,0.726-1.787,1.62c-0.242,0.894,0.172,1.613,0.916,1.613c0.017,0,9.945,0,9.945,0
			l0.928,5.417c0.219,1.138,0.776,1.739,1.656,1.806c0,0,2.079-0.008,2.083-0.008c0.749,0,1.546-0.724,1.791-1.618
			C60.377,33.107,60.058,32.376,59.309,32.376z"/>
		<path fill="#005BAA" d="M40.785,35.629c0.951,0,1.83-0.604,2.628-1.806l2.792-4.181h-3.336l-1.518,2.086
			c-0.255,0.383-0.716,0.605-1.363,0.666h-0.426c-0.746,0-1.545,0.728-1.786,1.62c-0.24,0.895,0.169,1.619,0.917,1.619
			C38.718,35.634,40.785,35.629,40.785,35.629z"/>
		<path fill="#034EA2" d="M55.402,44.003l-1.286-4.679h0.002c-0.149-0.823-0.911-1.44-1.901-1.44
			c-1.004,0.003-1.887,0.45-2.297,1.452l1.144,3.698c0,0.645-0.262,0.969-0.78,0.969h-9.877l9.864-10.005h0.002
			c0.259-0.809-0.207-1.408-1.176-1.408c-0.973,0-2.13,0.6-2.811,1.413h0.002L35.795,44.329l-0.651,2.42h4.511h13.272
			C54.724,46.749,55.547,45.832,55.402,44.003z"/>
	</g>
</g>
</svg>
