<?xml version="1.0" encoding="utf-8"?>
<!-- Generator: Adobe Illustrator 16.0.0, SVG Export Plug-In . SVG Version: 6.00 Build 0)  -->
<!DOCTYPE svg PUBLIC "-//W3C//DTD SVG 1.1//EN" "http://www.w3.org/Graphics/SVG/1.1/DTD/svg11.dtd">
<svg version="1.1" id="Layer_1" xmlns="http://www.w3.org/2000/svg" xmlns:xlink="http://www.w3.org/1999/xlink" x="0px" y="0px"
	 width="105px" height="36px" viewBox="17.5 6 105 36" enable-background="new 17.5 6 105 36" xml:space="preserve">
<g>
	<g>
		<g>
			<path fill="#034EA2" d="M26.078,24.271l-6.07,8.634l7.667,5.248l-1.815-10.25C25.638,26.648,25.732,25.412,26.078,24.271z"/>
			<path fill="#034EA2" d="M41.411,25.174c0.251,1.424,0.099,2.822-0.368,4.09l6.309-8.983L34.88,11.745l-5.968,8.491
				c0.96-0.714,2.093-1.223,3.352-1.444C36.558,18.038,40.652,20.894,41.411,25.174z"/>
			<path fill="#034EA2" d="M30.066,33.551l1.255,7.098l1.16,0.793l6.255-8.906c-1.032,0.873-2.302,1.496-3.731,1.746
				C33.257,34.59,31.538,34.297,30.066,33.551z"/>
			<path fill="#ED1C24" d="M34.458,31.186c2.578-0.451,4.295-2.902,3.842-5.467c-0.453-2.566-2.913-4.28-5.488-3.828
				c-2.576,0.451-4.295,2.898-3.842,5.469C29.427,29.924,31.878,31.637,34.458,31.186z"/>
		</g>
		<g>
			<path fill="#FAA74A" d="M20.015,17.695c0.997,1.299,3.708,3.248,5.148,2.597c0.725-0.324,1.713-2.142-1.086-2.981
				c-0.957-0.29-1.334-0.842-1.983-1.602c-0.514-0.603-1.462-0.592-2.037-0.046C19.486,16.212,19.464,17.121,20.015,17.695
				L20.015,17.695z"/>
			<path fill="#FAA74A" d="M47.865,19.096c0.777-0.148,1.291-0.901,1.143-1.676c-0.154-0.784-0.692-1.229-1.694-1.132
				c-1.821,0.172-2.935,0.283-5.167,0.998c-0.819,0.261-0.928,1.194-0.542,1.888c0.393,0.69,0.775,0.921,1.858,0.673
				C43.463,19.847,46.438,19.335,47.865,19.096z"/>
			<path fill="#FAA74A" d="M39.798,8.138c-1.213,0.54-2.924,3.689-3.102,4.096c-0.178,0.408-0.918,1.82-0.314,2.624
				c0.314,0.42,1.023,1.02,2.135,0.467c1.123-0.561,0.72-2.701,3.049-4.653c0.624-0.528,0.835-1.385,0.363-2.027
				C41.584,8.17,40.895,7.649,39.798,8.138z"/>
			<path fill="#FAA74A" d="M26.7,9.865c0.383,2.59,1.321,4.631,1.663,5.143c0.48,0.719,1.117,1.538,2.138,1.195
				c1.207-0.405,1.01-1.542,0.516-2.512c-0.588-1.446-1.274-3.131-1.388-4.635c-0.093-0.813-0.835-1.411-1.662-1.317
				C26.341,7.925,26.7,9.865,26.7,9.865z"/>
		</g>
	</g>
	<g>
		<g>
			<path fill="#034EA2" d="M116.66,36.727c0.538-0.266,0.935-0.76,1.195-1.475l2.896-9.799h-1.379h-1.445h-2.547h-1.377h-1.448
				l-2.002,6.773c1.084,0.365,1.627,1.451,1.248,2.736c-0.265,0.889-0.915,1.686-1.729,2.213l-0.885,1.768
				c-0.14,0.312-0.398,0.49-0.782,0.535c0,0-0.689-0.172-0.887,1.152c-0.167,1.125,0.799,0.986,0.799,0.986l0.768,0.012
				c0.962,0,1.661-0.426,2.094-1.275l1.841-3.424h0.688l-0.892,3.02c-0.317,1.074,0.064,1.633,1.153,1.678h2.479
				c0,0,0.595,0.066,0.942-1.111c0.349-1.174-0.304-1.037-0.304-1.037h-0.827c-0.274,0-0.373-0.133-0.293-0.4L116.66,36.727z
				 M114.902,27.283h2.549l-0.444,1.281h-2.548L114.902,27.283z M115.217,34.365c-0.083,0.268-0.26,0.402-0.534,0.402h-2.139
				l0.41-1.289h2.549L115.217,34.365z M113.456,31.701l0.414-1.309h2.549l-0.415,1.309H113.456z"/>
			<path fill="#034EA2" d="M105.92,34.963c0.33-1.123,1.277-2.09,2.381-2.561c1.183-1.229,2.079-2.316,2.667-3.246
				c0.179-0.432,0.249-0.824,0.203-1.176c-0.106-0.303-0.403-0.455-0.891-0.455h-1.246l0.35-1.178
				c0.09-0.305,0.04-0.545-0.156-0.721c-0.249-0.129-0.526-0.195-0.819-0.195c-0.342,0-0.685,0.088-1.029,0.262
				c-0.233,0.131-0.419,0.35-0.562,0.652l-0.348,1.18h-1.098c-0.338,0-0.609,0.086-0.805,0.26c-0.229,0.264-0.377,0.525-0.46,0.785
				c-0.074,0.264-0.069,0.502,0.01,0.719c0.1,0.174,0.31,0.285,0.639,0.324h3.435c0.146,0-2.454,2.791-5.004,4.318
				c-0.821,0.303-1.123,0.826-0.903,1.568c0.069,0.26,0.23,0.457,0.483,0.588c0.157,0.129,0.427,0.129,0.805,0
				c0.37-0.262,0.704-0.479,1.002-0.654l-1.584,5.361c-0.079,0.26-0.014,0.457,0.194,0.586c0.155,0.133,0.402,0.201,0.746,0.201
				c0.34,0,0.657-0.068,0.938-0.201c0.328-0.129,0.535-0.326,0.609-0.586l1.022-3.467C105.881,36.814,105.626,35.947,105.92,34.963z
				"/>
			<path fill="#ED1C24" d="M108.134,37.027c1.185,0.041,2.455-0.846,2.843-1.988c0.387-1.141-0.259-2.1-1.442-2.145
				c-1.185-0.045-2.458,0.846-2.843,1.984C106.301,36.018,106.951,36.979,108.134,37.027z"/>
		</g>
		<path fill="#034EA2" d="M69.4,29.611h-1.795c-0.298-0.045-0.493-0.154-0.574-0.334c-0.107-0.268-0.116-0.557-0.032-0.869
			c0.085-0.314,0.217-0.557,0.396-0.736c0.252-0.27,0.532-0.402,0.841-0.402h1.792l0.398-1.471c0.14-0.354,0.315-0.604,0.529-0.736
			c0.302-0.133,0.609-0.199,0.92-0.199c0.355,0,0.599,0.066,0.741,0.199c0.219,0.18,0.286,0.424,0.198,0.736l-0.39,1.471h4.117
			l0.395-1.471c0.139-0.354,0.318-0.604,0.53-0.736c0.303-0.133,0.606-0.199,0.92-0.199c0.353,0,0.6,0.066,0.743,0.199
			c0.216,0.18,0.287,0.424,0.2,0.736l-0.396,1.471h1.86c0.253,0.047,0.421,0.158,0.509,0.334c0.105,0.268,0.117,0.561,0.033,0.869
			c-0.072,0.268-0.212,0.537-0.415,0.805c-0.238,0.221-0.489,0.334-0.756,0.334h-1.859l-1.091,4.051h2.788
			c0.256,0.045,0.426,0.154,0.508,0.334c0.107,0.27,0.119,0.559,0.033,0.871c-0.069,0.266-0.208,0.535-0.414,0.801
			c-0.236,0.225-0.488,0.336-0.753,0.336H64.956c-0.3-0.045-0.487-0.156-0.574-0.336c-0.105-0.266-0.119-0.557-0.031-0.869
			c0.084-0.312,0.216-0.557,0.395-0.736c0.251-0.268,0.531-0.4,0.84-0.4h2.725L69.4,29.611z M74.758,33.592l1.051-3.91h-3.949
			l-1.054,3.91H74.758z M68.828,36.836c0.367-0.031,0.742-0.021,1.124,0.027c0.441,0.043,0.708,0.146,0.793,0.309
			c0.153,0.182,0.12,0.35-0.109,0.506c-1.732,1.336-3.19,2.529-5.148,3.48c-0.354,0.148-0.716,0.211-1.095,0.186
			c-0.323-0.062-0.987-0.221-1.194-0.357c-0.214-0.172-0.333-0.357-0.363-0.561c-0.023-0.145,0.4-0.42,1.271-0.838
			c1.331-0.668,2.583-1.459,3.751-2.365C68.135,36.996,68.458,36.867,68.828,36.836z M73.227,38.312
			c-0.286-0.145-0.363-0.318-0.233-0.523c0.11-0.172,0.344-0.342,0.7-0.508c0.263-0.113,0.594-0.188,0.986-0.219
			c0.399-0.025,0.729,0.047,0.996,0.219c1.31,0.807,2.616,1.867,3.918,3.184c0.188,0.195,0.202,0.371,0.034,0.537
			c-0.301,0.172-0.6,0.301-0.899,0.377c-0.397,0.125-0.773,0.172-1.131,0.143c-0.342-0.055-0.646-0.172-0.91-0.348
			C75.349,39.916,74.197,38.963,73.227,38.312z"/>
		<path fill="#034EA2" d="M87.469,30.055h2.458c0.073,0.035,0.179,0.072,0.297,0.104c0.018,0.104,0.004,0.221-0.035,0.359
			c-0.025,0.1-0.074,0.205-0.144,0.305c-0.112,0.102-0.237,0.152-0.366,0.152h-2.453c-0.133,0-0.251-0.051-0.351-0.152
			c-0.015-0.1-0.007-0.223,0.03-0.355c0.026-0.105,0.078-0.205,0.146-0.309C87.156,30.088,87.294,30.055,87.469,30.055z
			 M86.962,31.711h2.517c0.08,0.033,0.178,0.068,0.299,0.104c0.016,0.102,0.004,0.219-0.031,0.354
			c-0.025,0.104-0.079,0.207-0.144,0.311c-0.118,0.102-0.239,0.152-0.369,0.152h-2.521c-0.13,0-0.248-0.051-0.349-0.152
			c-0.015-0.104-0.004-0.223,0.031-0.361c0.025-0.098,0.074-0.201,0.146-0.303C86.646,31.744,86.784,31.711,86.962,31.711z"/>
		<path fill="#034EA2" d="M94.376,30.055h2.455c0.078,0.035,0.178,0.072,0.298,0.104c0.017,0.104,0.005,0.221-0.03,0.359
			c-0.027,0.1-0.079,0.205-0.148,0.305c-0.112,0.102-0.236,0.152-0.362,0.152h-2.46c-0.13,0-0.246-0.051-0.347-0.152
			c-0.018-0.1-0.006-0.223,0.029-0.355c0.027-0.105,0.077-0.205,0.147-0.309C94.064,30.088,94.203,30.055,94.376,30.055z
			 M93.869,31.711h2.518c0.077,0.033,0.176,0.068,0.296,0.104c0.016,0.102,0.006,0.219-0.029,0.354
			c-0.028,0.104-0.077,0.207-0.147,0.311c-0.116,0.102-0.236,0.152-0.363,0.152h-2.523c-0.131,0-0.245-0.051-0.346-0.152
			c-0.02-0.104-0.01-0.223,0.027-0.361c0.027-0.098,0.076-0.201,0.147-0.303C93.555,31.744,93.694,31.711,93.869,31.711z"/>
		<path fill="#034EA2" d="M98.31,38.404c0.089-0.328,0.052-0.5-0.085-0.75c-0.083-0.152-0.409-0.238-0.642-0.238
			c-0.2,0-0.376,0.096-0.477,0.143l1.104-4.104H84.347l-1.275,4.738c-0.152,0.564-0.16,0.939-0.028,1.127
			c0.13,0.188,0.417,0.305,0.859,0.352h4.509l-0.153,0.566c-0.152,0.561-0.091,1.01,0.184,1.338C88.641,41.857,88.988,42,89.488,42
			c2.099,0,4.192,0,6.285,0c0.18,0,0.363,0,0.546,0c0.287-0.051,0.501-0.115,0.812-0.457C97.507,41.137,97.925,40.006,98.31,38.404z
			 M89.457,35.77H86.02l0.217-0.807h3.441L89.457,35.77z M88.861,38h-3.443l0.217-0.807h3.445L88.861,38z M92.043,34.965h3.442
			L95.27,35.77h-3.442L92.043,34.965z M91.454,37.168h3.438l-0.219,0.803h-3.438L91.454,37.168z M95.495,40.238H90.84
			c-0.228,0-0.124-0.375-0.047-0.568h3.939c0.571,0,1.295,0.051,1.553-0.23C96.283,39.439,96.164,40.238,95.495,40.238z"/>
		<path fill="#034EA2" d="M94.066,27.215h5.798v-0.002c0.458-0.004,0.931-0.381,1.056-0.84c0.124-0.467-0.146-0.846-0.611-0.846
			c-0.004,0-13.847,0.002-13.849,0.002c-0.462,0-0.942,0.377-1.069,0.846c-0.218,0.818,0.669,0.842,0.693,0.84h5.696l-0.199,0.748
			h-6.626l-1.02,3.797c0,0.002,0,0.002,0,0.004c-0.002,0-0.002,0.002-0.002,0.004v0.004l0,0c-0.147,0.557,0.178,1.006,0.735,1.006
			c0.56,0,1.131-0.453,1.279-1.014c0.009-0.02,0.654-2.428,0.654-2.428h4.606l-0.688,2.559h0.007c0,0.002,0,0.004,0,0.004
			c-0.169,0.633,0.202,1.148,0.828,1.148c0.632,0,1.28-0.514,1.45-1.148c0.003,0,0.003-0.002,0.003-0.004l0,0l0.686-2.559h4.538
			c0,0-0.651,2.418-0.654,2.428c-0.149,0.561,0.181,1.014,0.737,1.014c0.554,0,1.125-0.449,1.279-1.006h0.008l1.026-3.807h-6.562
			L94.066,27.215z"/>
		<path fill="#034EA2" d="M62.162,30.84c-0.034,0-0.607,0.014-0.607,0.014c-0.156,0-0.27-0.162-0.337-0.492l-0.866-4.834
			c0,0-9.021-0.002-9.034-0.002c-0.553,0-1.14,0.535-1.318,1.195c-0.179,0.66,0.127,1.189,0.675,1.189c0.013,0,7.337,0,7.337,0
			l0.684,3.996c0.162,0.84,0.572,1.283,1.222,1.332c0,0,1.534-0.006,1.537-0.006c0.553,0,1.141-0.533,1.321-1.193
			C62.949,31.379,62.714,30.84,62.162,30.84z"/>
		<path fill="#005BAA" d="M48.497,33.238c0.701,0,1.35-0.445,1.938-1.332l2.06-3.084h-2.46l-1.12,1.539
			c-0.188,0.283-0.528,0.447-1.006,0.492h-0.314c-0.55,0-1.14,0.537-1.317,1.193c-0.177,0.662,0.125,1.195,0.676,1.195
			C46.972,33.242,48.497,33.238,48.497,33.238z"/>
		<path fill="#034EA2" d="M59.279,39.416l-0.949-3.451h0.001c-0.11-0.607-0.672-1.062-1.402-1.062
			c-0.741,0.002-1.392,0.332-1.694,1.072l0.844,2.727c0,0.477-0.193,0.715-0.575,0.715h-7.286l7.276-7.381h0.001
			c0.191-0.596-0.153-1.037-0.867-1.037c-0.718,0-1.572,0.441-2.074,1.041h0.001l-7.741,7.617l-0.48,1.785h3.327h9.791
			C58.779,41.441,59.386,40.766,59.279,39.416z"/>
	</g>
</g>
</svg>
