<?xml version="1.0" encoding="UTF-8" standalone="no"?>
<svg width="140px" height="35px" viewBox="0 0 140 35" version="1.1" xmlns="http://www.w3.org/2000/svg" xmlns:xlink="http://www.w3.org/1999/xlink" xmlns:sketch="http://www.bohemiancoding.com/sketch/ns">
    <title>Untitled 2</title>
    <description>Created with Sketch (http://www.bohemiancoding.com/sketch)</description>
    <defs></defs>
    <g id="Page-1" stroke="none" stroke-width="1" fill="none" fill-rule="evenodd" sketch:type="MSPage">
        <g sketch:type="MSLayerGroup" transform="translate(0.000000, 1.000000)" id="pts-news" fill="#000000">
            <g sketch:type="MSShapeGroup">
                <path d="M30.8739459,17.2585455 C26.995027,14.1134545 23.5545946,9.37890909 20.5526486,1.83745455 L13.6717838,1.83745455 L13.6717838,3.62981818 L19.3721081,3.62981818 C22.4077838,10.7992727 25.4434595,14.9589091 29.5584865,18.8141818 L30.8739459,17.2585455 L30.8739459,17.2585455 Z M29.3561081,30.3123636 C26.7589189,26.5585455 23.8581622,22.6356364 21.0585946,18.9832727 L19.6756757,20.1330909 C21.2947027,22.196 22.508973,23.9207273 23.8244324,25.8145455 C17.7193514,26.5247273 12.7273514,26.8290909 8.00518919,27.0996364 C11.0745946,22.0607273 13.8404324,16.9203636 16.3701622,11.1036364 L14.6162162,10.3596364 C11.9852973,16.616 9.21945946,21.7225455 5.98140541,27.2349091 C4.76713514,27.3363636 3.45167568,27.3363636 2.23740541,27.3363636 L2.67589189,29.264 C11.4118919,28.7229091 18.0229189,28.3509091 25.0387027,27.4378182 C26.0168649,28.7905455 26.6914595,29.8050909 27.8045405,31.4621818 L29.3561081,30.3123636 L29.3561081,30.3123636 Z M1.49535135,18.848 C5.7452973,13.1665455 7.97145946,9.61563636 11.2095135,3.66363636 L9.65794595,2.88581818 C6.58854054,8.60109091 4.22745946,12.2872727 0.112432432,17.5967273 L1.49535135,18.848 L1.49535135,18.848 Z M64.435027,28.0803636 C64.5699459,26.8967273 64.5699459,25.9836364 64.6036757,24.7323636 L62.9171892,24.056 C62.8834595,25.6792727 62.8497297,26.66 62.7485405,27.7083636 C62.6473514,28.6890909 62.3775135,28.892 61.3993514,28.9258182 C60.4886486,28.9596364 59.0045405,28.9596364 58.2287568,28.9258182 C57.1494054,28.892 57.1156757,28.6890909 57.1156757,27.5054545 L57.1156757,20.8094545 L61.6691892,20.8094545 L61.6691892,2.108 L47.4352432,2.108 L47.4352432,20.8094545 L51.3816216,20.8094545 C50.7407568,25.3749091 48.6157838,27.6069091 43.4551351,30.0418182 L44.2983784,31.496 C48.9193514,29.3992727 52.2923243,26.3556364 52.8994595,20.8094545 L55.4966486,20.8094545 L55.4966486,27.5054545 C55.4966486,29.6021818 55.7327568,30.38 58.1612973,30.4814545 L61.3993514,30.4814545 C63.3556757,30.38 64.2663784,30.0756364 64.435027,28.0803636 L64.435027,28.0803636 Z M41.4650811,5.79418182 C40.1158919,3.62981818 39.2726486,2.24327273 37.9234595,0.450909091 L36.6417297,1.364 C37.9909189,3.15636364 38.6655135,4.44145455 40.0147027,6.80872727 L41.4650811,5.79418182 L41.4650811,5.79418182 Z M46.3221622,20.2345455 C44.7031351,18.2392727 43.7587027,17.1570909 42.2071351,15.6014545 L41.1615135,16.7174545 C42.6456216,18.2730909 43.5563243,19.3214545 45.0741622,21.3843636 L46.3221622,20.2345455 L46.3221622,20.2345455 Z M40.9928649,15.0265455 C42.848,12.6254545 44.3658378,10.0890909 45.6138378,6.97781818 L34.1457297,6.97781818 L34.1457297,8.49963636 L43.219027,8.49963636 C41.3301622,12.8283636 36.9452973,17.7658182 33.5048649,20.3698182 L34.6516757,21.7225455 C36.3718919,20.2683636 37.9234595,18.6789091 39.3738378,16.9541818 L39.3738378,31.5636364 L40.9928649,31.5636364 L40.9928649,15.0265455 L40.9928649,15.0265455 Z M60.1176216,7.75563636 L49.0205405,7.75563636 L49.0205405,3.596 L60.1176216,3.596 L60.1176216,7.75563636 L60.1176216,7.75563636 Z M60.1176216,13.2003636 L49.0205405,13.2003636 L49.0205405,9.24363636 L60.1176216,9.24363636 L60.1176216,13.2003636 L60.1176216,13.2003636 Z M60.1176216,19.3214545 L49.0205405,19.3214545 L49.0205405,14.6883636 L60.1176216,14.6883636 L60.1176216,19.3214545 L60.1176216,19.3214545 Z M98.1647568,13.3018182 L98.1647568,11.78 L86.9664865,11.78 L86.9664865,4.27236364 C91.2838919,3.73127273 93.5100541,3.52836364 97.2203243,2.78436364 L96.2758919,1.26254545 C92.5656216,1.97272727 90.272,2.37854545 85.4149189,2.91963636 L85.4149189,16.7850909 C85.4149189,21.824 84.6054054,26.3556364 82.0756757,30.3123636 L83.4923243,31.1578182 C85.9545946,27.2010909 86.9664865,22.2298182 86.9664865,16.7850909 L86.9664865,13.3018182 L92.4981622,13.3018182 L92.4981622,31.496 L94.1171892,31.496 L94.1171892,13.3018182 L98.1647568,13.3018182 L98.1647568,13.3018182 Z M83.5935135,17.6643636 L77.0162162,17.6643636 L76.9487568,14.3501818 L75.3634595,14.3501818 L75.4309189,17.6643636 L68.3476757,17.6643636 L68.3139459,19.22 L74.3515676,19.22 C72.5976216,22.0607273 70.5401081,24.4618182 67.4032432,27.404 L68.6175135,28.52 C71.6869189,25.5101818 73.4745946,23.2105455 75.3634595,20.2345455 L75.3634595,31.5636364 L76.9487568,31.5636364 L76.9487568,19.22 L83.5597838,19.22 L83.5935135,17.6643636 L83.5935135,17.6643636 Z M84.1669189,13.9443636 L84.1669189,12.3549091 L79.2086486,12.3549091 C79.8832432,10.7654545 80.4903784,9.04072727 81.164973,7.01163636 L79.6808649,6.43672727 C78.9725405,8.63490909 78.4328649,10.3258182 77.6233514,12.3549091 L74.6888649,12.3549091 C73.9805405,10.2243636 73.4408649,8.90545455 72.5638919,6.77490909 L71.1472432,7.41745455 C71.923027,9.176 72.3952432,10.5625455 73.0361081,12.3549091 L67.9766486,12.3549091 L67.9766486,13.9443636 L84.1669189,13.9443636 L84.1669189,13.9443636 Z M83.0875676,6.23381818 L83.0875676,4.712 L76.3078919,4.712 L77.4547027,3.93418182 C76.6114595,2.61527273 75.8019459,1.53309091 74.8912432,0.214181818 L73.7107027,1.02581818 C74.6214054,2.37854545 75.3297297,3.46072727 76.1055135,4.712 L68.8198919,4.712 L68.8198919,6.23381818 L83.0875676,6.23381818 L83.0875676,6.23381818 Z M82.8177297,25.8483636 C81.4348108,23.8192727 80.288,22.2636364 78.9388108,20.5389091 L77.8257297,21.4181818 C79.3772973,23.4134545 80.288,25.0029091 81.536,26.8967273 L82.8177297,25.8483636 L82.8177297,25.8483636 Z M127.003676,31.1916364 C129.263568,31.1916364 129.904432,30.8196364 129.904432,28.6214545 L129.904432,1.87127273 L118.031568,1.87127273 L118.031568,11.2050909 L128.319135,11.2050909 L128.319135,28.6214545 C128.319135,29.4669091 128.049297,29.6021818 127.138595,29.6021818 C126.227892,29.6021818 125.148541,29.4669091 124.102919,29.2978182 L124.305297,31.0225455 C125.216,31.124 126.160432,31.1916364 127.003676,31.1916364 L127.003676,31.1916364 Z M121.775568,26.66 C123.225946,26.5247273 124.676324,26.4232727 126.295351,26.1865455 L126.126703,24.7323636 C124.743784,24.9690909 123.259676,25.1043636 121.775568,25.2396364 L121.775568,15.128 L125.350919,15.128 L125.350919,13.64 L107.204324,13.64 L107.204324,15.128 L111.049514,15.128 L111.049514,26.1189091 C109.700324,26.2541818 108.317405,26.3218182 106.732108,26.4232727 L107.001946,28.0803636 C111.757838,27.6745455 116.007784,27.2010909 120.224,26.7952727 L120.224,29.9741818 L121.775568,29.9741818 L121.775568,26.66 L121.775568,26.66 Z M115.232,11.2050909 L115.232,1.87127273 L103.257946,1.87127273 L103.257946,31.5636364 L104.843243,31.5636364 L104.843243,11.2050909 L115.232,11.2050909 L115.232,11.2050909 Z M128.319135,5.76036364 L119.481946,5.76036364 L119.481946,3.35927273 L128.319135,3.35927273 L128.319135,5.76036364 L128.319135,5.76036364 Z M128.319135,9.75090909 L119.481946,9.75090909 L119.481946,7.21454545 L128.319135,7.21454545 L128.319135,9.75090909 L128.319135,9.75090909 Z M113.680432,5.76036364 L104.843243,5.76036364 L104.843243,3.35927273 L113.680432,3.35927273 L113.680432,5.76036364 L113.680432,5.76036364 Z M113.680432,9.75090909 L104.843243,9.75090909 L104.843243,7.21454545 L113.680432,7.21454545 L113.680432,9.75090909 L113.680432,9.75090909 Z M120.224,17.4614545 L112.533622,17.4614545 L112.533622,15.128 L120.224,15.128 L120.224,17.4614545 L120.224,17.4614545 Z M120.224,21.5534545 L112.533622,21.5534545 L112.533622,18.9494545 L120.224,18.9494545 L120.224,21.5534545 L120.224,21.5534545 Z M120.224,25.3410909 C117.829189,25.5778182 115.333189,25.7807273 112.533622,26.0174545 L112.533622,23.0076364 L120.224,23.0076364 L120.224,25.3410909 L120.224,25.3410909 Z" id="公視新聞"></path>
            </g>
        </g>
    </g>
</svg>