<?xml version="1.0" encoding="UTF-8" standalone="no"?>
<svg width="140px" height="35px" viewBox="0 0 140 35" version="1.1" xmlns="http://www.w3.org/2000/svg" xmlns:xlink="http://www.w3.org/1999/xlink" xmlns:sketch="http://www.bohemiancoding.com/sketch/ns">
    <title>Untitled</title>
    <description>Created with Sketch (http://www.bohemiancoding.com/sketch)</description>
    <defs></defs>
    <g id="Page-1" stroke="none" stroke-width="1" fill="none" fill-rule="evenodd" sketch:type="MSPage">
        <g sketch:type="MSLayerGroup" transform="translate(0.000000, 1.000000)" id="citizen-news" fill="#000000">
            <g sketch:type="MSShapeGroup">
                <path d="M30.8739459,17.2585455 C26.995027,14.1134545 23.5545946,9.37890909 20.5526486,1.83745455 L13.6717838,1.83745455 L13.6717838,3.62981818 L19.3721081,3.62981818 C22.4077838,10.7992727 25.4434595,14.9589091 29.5584865,18.8141818 L30.8739459,17.2585455 L30.8739459,17.2585455 Z M29.3561081,30.3123636 C26.7589189,26.5585455 23.8581622,22.6356364 21.0585946,18.9832727 L19.6756757,20.1330909 C21.2947027,22.196 22.508973,23.9207273 23.8244324,25.8145455 C17.7193514,26.5247273 12.7273514,26.8290909 8.00518919,27.0996364 C11.0745946,22.0607273 13.8404324,16.9203636 16.3701622,11.1036364 L14.6162162,10.3596364 C11.9852973,16.616 9.21945946,21.7225455 5.98140541,27.2349091 C4.76713514,27.3363636 3.45167568,27.3363636 2.23740541,27.3363636 L2.67589189,29.264 C11.4118919,28.7229091 18.0229189,28.3509091 25.0387027,27.4378182 C26.0168649,28.7905455 26.6914595,29.8050909 27.8045405,31.4621818 L29.3561081,30.3123636 L29.3561081,30.3123636 Z M1.49535135,18.848 C5.7452973,13.1665455 7.97145946,9.61563636 11.2095135,3.66363636 L9.65794595,2.88581818 C6.58854054,8.60109091 4.22745946,12.2872727 0.112432432,17.5967273 L1.49535135,18.848 L1.49535135,18.848 Z M61.8715676,31.0563636 C63.4905946,31.0563636 63.8953514,29.9065455 64.7048649,25.4087273 L62.8834595,24.1236364 C62.444973,27.9450909 62.2088649,29.1287273 61.5005405,29.1287273 C59.7803243,29.1287273 54.451027,25.6792727 52.0224865,18.0363636 L64.064,18.0363636 L64.064,16.3792727 L51.584,16.3792727 C51.1792432,14.6545455 50.9094054,12.8621818 50.8756757,10.7992727 L60.7922162,10.7992727 L60.7922162,2.108 L37.6198919,2.108 L37.6198919,28.1818182 C36.3718919,28.4861818 35.4274595,28.6890909 33.8421622,28.9934545 L34.5167568,30.8872727 C39.6774054,29.7036364 44.0622703,28.4523636 50.0661622,26.7614545 L49.7625946,25.0705455 C46.5582703,26.0174545 43.4551351,26.8290909 39.3063784,27.8098182 L39.3063784,18.0363636 L50.2348108,18.0363636 C52.7645405,26.8967273 59.0382703,31.0563636 61.8715676,31.0563636 L61.8715676,31.0563636 Z M59.0382703,9.176 L39.3063784,9.176 L39.3063784,3.76509091 L59.0382703,3.76509091 L59.0382703,9.176 L59.0382703,9.176 Z M49.1554595,10.7992727 C49.2566486,12.8283636 49.459027,14.6545455 49.8300541,16.3792727 L39.3063784,16.3792727 L39.3063784,10.7992727 L49.1554595,10.7992727 L49.1554595,10.7992727 Z M98.1647568,13.3018182 L98.1647568,11.78 L86.9664865,11.78 L86.9664865,4.27236364 C91.2838919,3.73127273 93.5100541,3.52836364 97.2203243,2.78436364 L96.2758919,1.26254545 C92.5656216,1.97272727 90.272,2.37854545 85.4149189,2.91963636 L85.4149189,16.7850909 C85.4149189,21.824 84.6054054,26.3556364 82.0756757,30.3123636 L83.4923243,31.1578182 C85.9545946,27.2010909 86.9664865,22.2298182 86.9664865,16.7850909 L86.9664865,13.3018182 L92.4981622,13.3018182 L92.4981622,31.496 L94.1171892,31.496 L94.1171892,13.3018182 L98.1647568,13.3018182 L98.1647568,13.3018182 Z M83.5935135,17.6643636 L77.0162162,17.6643636 L76.9487568,14.3501818 L75.3634595,14.3501818 L75.4309189,17.6643636 L68.3476757,17.6643636 L68.3139459,19.22 L74.3515676,19.22 C72.5976216,22.0607273 70.5401081,24.4618182 67.4032432,27.404 L68.6175135,28.52 C71.6869189,25.5101818 73.4745946,23.2105455 75.3634595,20.2345455 L75.3634595,31.5636364 L76.9487568,31.5636364 L76.9487568,19.22 L83.5597838,19.22 L83.5935135,17.6643636 L83.5935135,17.6643636 Z M84.1669189,13.9443636 L84.1669189,12.3549091 L79.2086486,12.3549091 C79.8832432,10.7654545 80.4903784,9.04072727 81.164973,7.01163636 L79.6808649,6.43672727 C78.9725405,8.63490909 78.4328649,10.3258182 77.6233514,12.3549091 L74.6888649,12.3549091 C73.9805405,10.2243636 73.4408649,8.90545455 72.5638919,6.77490909 L71.1472432,7.41745455 C71.923027,9.176 72.3952432,10.5625455 73.0361081,12.3549091 L67.9766486,12.3549091 L67.9766486,13.9443636 L84.1669189,13.9443636 L84.1669189,13.9443636 Z M83.0875676,6.23381818 L83.0875676,4.712 L76.3078919,4.712 L77.4547027,3.93418182 C76.6114595,2.61527273 75.8019459,1.53309091 74.8912432,0.214181818 L73.7107027,1.02581818 C74.6214054,2.37854545 75.3297297,3.46072727 76.1055135,4.712 L68.8198919,4.712 L68.8198919,6.23381818 L83.0875676,6.23381818 L83.0875676,6.23381818 Z M82.8177297,25.8483636 C81.4348108,23.8192727 80.288,22.2636364 78.9388108,20.5389091 L77.8257297,21.4181818 C79.3772973,23.4134545 80.288,25.0029091 81.536,26.8967273 L82.8177297,25.8483636 L82.8177297,25.8483636 Z M127.003676,31.1916364 C129.263568,31.1916364 129.904432,30.8196364 129.904432,28.6214545 L129.904432,1.87127273 L118.031568,1.87127273 L118.031568,11.2050909 L128.319135,11.2050909 L128.319135,28.6214545 C128.319135,29.4669091 128.049297,29.6021818 127.138595,29.6021818 C126.227892,29.6021818 125.148541,29.4669091 124.102919,29.2978182 L124.305297,31.0225455 C125.216,31.124 126.160432,31.1916364 127.003676,31.1916364 L127.003676,31.1916364 Z M121.775568,26.66 C123.225946,26.5247273 124.676324,26.4232727 126.295351,26.1865455 L126.126703,24.7323636 C124.743784,24.9690909 123.259676,25.1043636 121.775568,25.2396364 L121.775568,15.128 L125.350919,15.128 L125.350919,13.64 L107.204324,13.64 L107.204324,15.128 L111.049514,15.128 L111.049514,26.1189091 C109.700324,26.2541818 108.317405,26.3218182 106.732108,26.4232727 L107.001946,28.0803636 C111.757838,27.6745455 116.007784,27.2010909 120.224,26.7952727 L120.224,29.9741818 L121.775568,29.9741818 L121.775568,26.66 L121.775568,26.66 Z M115.232,11.2050909 L115.232,1.87127273 L103.257946,1.87127273 L103.257946,31.5636364 L104.843243,31.5636364 L104.843243,11.2050909 L115.232,11.2050909 L115.232,11.2050909 Z M128.319135,5.76036364 L119.481946,5.76036364 L119.481946,3.35927273 L128.319135,3.35927273 L128.319135,5.76036364 L128.319135,5.76036364 Z M128.319135,9.75090909 L119.481946,9.75090909 L119.481946,7.21454545 L128.319135,7.21454545 L128.319135,9.75090909 L128.319135,9.75090909 Z M113.680432,5.76036364 L104.843243,5.76036364 L104.843243,3.35927273 L113.680432,3.35927273 L113.680432,5.76036364 L113.680432,5.76036364 Z M113.680432,9.75090909 L104.843243,9.75090909 L104.843243,7.21454545 L113.680432,7.21454545 L113.680432,9.75090909 L113.680432,9.75090909 Z M120.224,17.4614545 L112.533622,17.4614545 L112.533622,15.128 L120.224,15.128 L120.224,17.4614545 L120.224,17.4614545 Z M120.224,21.5534545 L112.533622,21.5534545 L112.533622,18.9494545 L120.224,18.9494545 L120.224,21.5534545 L120.224,21.5534545 Z M120.224,25.3410909 C117.829189,25.5778182 115.333189,25.7807273 112.533622,26.0174545 L112.533622,23.0076364 L120.224,23.0076364 L120.224,25.3410909 L120.224,25.3410909 Z" id="公民新聞"></path>
            </g>
        </g>
    </g>
</svg>