<?xml version="1.0" encoding="utf-8"?>
<!-- Generator: Adobe Illustrator 16.0.0, SVG Export Plug-In . SVG Version: 6.00 Build 0)  -->
<!DOCTYPE svg PUBLIC "-//W3C//DTD SVG 1.1//EN" "http://www.w3.org/Graphics/SVG/1.1/DTD/svg11.dtd">
<svg version="1.1" id="Layer_1" xmlns="http://www.w3.org/2000/svg" xmlns:xlink="http://www.w3.org/1999/xlink" x="0px" y="0px"
	 width="16px" height="16px" viewBox="0 0 16 16" enable-background="new 0 0 16 16" xml:space="preserve">
<path fill="#E6E7E8" d="M15.504,13.614l-3.79-3.224c-0.392-0.353-0.812-0.514-1.149-0.498c0.895-1.048,1.435-2.408,1.435-3.894
	c0-3.314-2.686-6-6-6s-6,2.686-6,6c0,3.313,2.686,6,6,6c1.486,0,2.845-0.54,3.893-1.436c-0.016,0.339,0.146,0.758,0.499,1.149
	l3.224,3.79c0.552,0.613,1.453,0.665,2.003,0.115S16.116,14.166,15.504,13.614L15.504,13.614z M6,9.999c-2.209,0-4-1.791-4-4
	c0-2.209,1.791-4,4-4c2.209,0,4,1.791,4,4C9.999,8.208,8.208,9.999,6,9.999z"/>
</svg>
