<?xml version="1.0" encoding="utf-8"?>
<!-- Generator: Adobe Illustrator 16.0.0, SVG Export Plug-In . SVG Version: 6.00 Build 0)  -->
<!DOCTYPE svg PUBLIC "-//W3C//DTD SVG 1.1//EN" "http://www.w3.org/Graphics/SVG/1.1/DTD/svg11.dtd">
<svg version="1.1" id="Layer_1" xmlns:sketch="http://www.bohemiancoding.com/sketch/ns"
	 xmlns="http://www.w3.org/2000/svg" xmlns:xlink="http://www.w3.org/1999/xlink" x="0px" y="0px" width="36px" height="18px"
	 viewBox="0 0 36 18" enable-background="new 0 0 36 18" xml:space="preserve">
<title>Untitled</title>
<description>Created with Sketch (http://www.bohemiancoding.com/sketch)</description>
<g id="Page-1" sketch:type="MSPage">
	<path id="Rectangle-1" sketch:type="MSShapeGroup" fill="#034EA2" d="M3,0h30c1.656,0,3,1.343,3,3v12c0,1.656-1.344,3-3,3H3
		c-1.657,0-3-1.344-3-3V3C0,1.343,1.343,0,3,0z"/>
</g>
<g>
	<path fill="#FFFFFF" d="M8.339,4.106v7.539h4.513v1.712H6.304V4.106H8.339z"/>
	<path fill="#FFFFFF" d="M13.852,5.624V4.106h1.842v1.517H13.852z M15.693,6.661v6.696h-1.842V6.661H15.693z"/>
	<path fill="#FFFFFF" d="M18.804,13.357l-2.294-6.696h1.933l1.41,4.569h0.024l1.412-4.569h1.829l-2.27,6.696H18.804z"/>
	<path fill="#FFFFFF" d="M25.851,11.749c0.277,0.268,0.676,0.401,1.195,0.401c0.371,0,0.69-0.091,0.959-0.278
		c0.268-0.185,0.433-0.383,0.492-0.59h1.621c-0.26,0.805-0.657,1.379-1.192,1.725c-0.536,0.347-1.186,0.52-1.946,0.52
		c-0.526,0-1.002-0.084-1.425-0.253c-0.425-0.17-0.784-0.409-1.077-0.721c-0.295-0.312-0.521-0.683-0.681-1.114
		c-0.16-0.433-0.241-0.908-0.241-1.427c0-0.494,0.083-0.96,0.247-1.393s0.398-0.806,0.7-1.122c0.303-0.315,0.664-0.564,1.083-0.746
		c0.42-0.182,0.884-0.272,1.394-0.272c0.571,0,1.068,0.11,1.492,0.33c0.423,0.221,0.772,0.517,1.044,0.889
		c0.272,0.372,0.469,0.796,0.59,1.271c0.12,0.476,0.164,0.964,0.131,1.483h-4.839C25.424,11.048,25.576,11.48,25.851,11.749z
		 M27.934,8.23c-0.221-0.242-0.557-0.363-1.005-0.363c-0.294,0-0.54,0.05-0.733,0.149c-0.194,0.1-0.351,0.223-0.466,0.37
		c-0.118,0.147-0.2,0.304-0.248,0.467c-0.047,0.164-0.074,0.312-0.084,0.44h2.996C28.307,8.827,28.153,8.472,27.934,8.23z"/>
</g>
</svg>
