<?xml version="1.0" encoding="utf-8"?>
<!-- Generator: Adobe Illustrator 16.0.0, SVG Export Plug-In . SVG Version: 6.00 Build 0)  -->
<!DOCTYPE svg PUBLIC "-//W3C//DTD SVG 1.1//EN" "http://www.w3.org/Graphics/SVG/1.1/DTD/svg11.dtd">
<svg version="1.1" id="Layer_1" xmlns:sketch="http://www.bohemiancoding.com/sketch/ns"
	 xmlns="http://www.w3.org/2000/svg" xmlns:xlink="http://www.w3.org/1999/xlink" x="0px" y="0px" width="36px" height="18px"
	 viewBox="0 0 36 18" enable-background="new 0 0 36 18" xml:space="preserve">
<title>Untitled</title>
<description>Created with Sketch (http://www.bohemiancoding.com/sketch)</description>
<g id="Page-1" sketch:type="MSPage">
	<path id="Rectangle-1" sketch:type="MSShapeGroup" fill="#034EA2" d="M3,0h30c1.656,0,3,1.343,3,3v12c0,1.656-1.344,3-3,3H3
		c-1.657,0-3-1.344-3-3V3C0,1.343,1.343,0,3,0z"/>
</g>
<g display="none">
	<path display="inline" fill="#FFFFFF" d="M8.339,4.106v7.539h4.513v1.713H6.304V4.106H8.339z"/>
	<path display="inline" fill="#FFFFFF" d="M13.852,5.624V4.106h1.842v1.517L13.852,5.624L13.852,5.624z M15.693,6.661v6.696h-1.842
		V6.661H15.693z"/>
	<path display="inline" fill="#FFFFFF" d="M18.805,13.357L16.51,6.661h1.933l1.411,4.569h0.023l1.412-4.569h1.829l-2.271,6.696
		H18.805z"/>
	<path display="inline" fill="#FFFFFF" d="M25.852,11.749c0.276,0.269,0.676,0.401,1.194,0.401c0.371,0,0.69-0.092,0.959-0.278
		c0.269-0.185,0.433-0.383,0.492-0.59h1.621c-0.261,0.805-0.657,1.379-1.192,1.725c-0.535,0.347-1.186,0.521-1.945,0.521
		c-0.524,0-1.002-0.084-1.426-0.254c-0.425-0.17-0.783-0.406-1.076-0.721c-0.295-0.312-0.521-0.683-0.682-1.113
		c-0.16-0.434-0.24-0.906-0.24-1.428c0-0.494,0.082-0.96,0.246-1.393c0.164-0.433,0.398-0.806,0.7-1.122
		c0.304-0.315,0.664-0.564,1.083-0.746c0.42-0.182,0.885-0.272,1.395-0.272c0.57,0,1.067,0.11,1.492,0.33
		c0.422,0.221,0.771,0.517,1.043,0.889c0.272,0.372,0.469,0.796,0.59,1.271c0.121,0.476,0.164,0.965,0.131,1.483h-4.838
		C25.424,11.048,25.576,11.48,25.852,11.749z M27.934,8.23c-0.221-0.242-0.557-0.363-1.004-0.363c-0.295,0-0.541,0.05-0.734,0.149
		c-0.191,0.1-0.35,0.223-0.465,0.37c-0.119,0.147-0.201,0.304-0.248,0.467c-0.047,0.164-0.072,0.312-0.084,0.44h2.996
		C28.307,8.827,28.152,8.472,27.934,8.23z"/>
</g>
<g>
	<path fill="#FFFFFF" d="M6.647,5.007l3.874,6.19h0.026v-6.19h1.911v9.246h-2.041l-3.86-6.179H6.531v6.178H4.62V5.007H6.647z"/>
	<path fill="#FFFFFF" d="M14.097,9.472c0.164-0.438,0.398-0.811,0.702-1.119c0.303-0.308,0.667-0.546,1.092-0.715
		c0.425-0.169,0.901-0.253,1.43-0.253c0.529,0,1.014,0.084,1.453,0.253c0.43,0.169,0.795,0.407,1.1,0.715s0.537,0.681,0.703,1.119
		c0.162,0.418,0.244,0.889,0.244,1.426s-0.082,1.023-0.244,1.457c-0.166,0.434-0.398,0.803-0.703,1.111
		c-0.305,0.307-0.67,0.543-1.1,0.707c-0.438,0.166-0.922,0.248-1.453,0.248c-0.529,0-1.005-0.082-1.43-0.248
		c-0.425-0.164-0.789-0.4-1.092-0.707c-0.304-0.309-0.538-0.678-0.702-1.111c-0.165-0.434-0.247-0.92-0.247-1.457
		S13.932,9.891,14.097,9.472z M15.774,11.686c0.052,0.256,0.141,0.484,0.267,0.689c0.125,0.203,0.292,0.365,0.5,0.486
		c0.208,0.119,0.469,0.182,0.78,0.182c0.312,0,0.574-0.062,0.787-0.182c0.217-0.121,0.395-0.283,0.522-0.486
		c0.125-0.205,0.213-0.436,0.267-0.689c0.055-0.256,0.078-0.518,0.078-0.787c0-0.268-0.023-0.533-0.078-0.787
		c-0.054-0.247-0.142-0.467-0.267-0.658c-0.127-0.199-0.305-0.361-0.522-0.487c-0.213-0.125-0.475-0.188-0.787-0.188
		s-0.572,0.063-0.78,0.188c-0.208,0.126-0.375,0.289-0.5,0.487c-0.126,0.191-0.215,0.411-0.267,0.658
		c-0.052,0.255-0.078,0.521-0.078,0.787C15.696,11.168,15.722,11.43,15.774,11.686z"/>
	<path fill="#FFFFFF" d="M27.801,14.252l-1.195-4.488H26.58l-1.145,4.488h-1.912l-2.131-6.685h1.949l1.234,4.526h0.027l1.117-4.526
		h1.795l1.143,4.516h0.027l1.232-4.516h1.896l-2.117,6.685H27.801z"/>
</g>
</svg>
