<?xml version="1.0" encoding="UTF-8" standalone="no"?>
<svg width="200px" height="50px" viewBox="0 0 200 50" version="1.1" xmlns="http://www.w3.org/2000/svg" xmlns:xlink="http://www.w3.org/1999/xlink" xmlns:sketch="http://www.bohemiancoding.com/sketch/ns">
    <g id="Page-1" stroke="none" stroke-width="1" fill="none" fill-rule="evenodd" sketch:type="MSPage">
        <g id="pts-news" sketch:type="MSArtboardGroup" fill="#000000">
            <path d="M45.936,27.496 C40.416,23.032 35.52,16.312 31.248,5.608 L21.456,5.608 L21.456,8.152 L29.568,8.152 C33.888,18.328 38.208,24.232 44.064,29.704 L45.936,27.496 Z M43.776,46.024 C40.08,40.696 35.952,35.128 31.968,29.944 L30,31.576 C32.304,34.504 34.032,36.952 35.904,39.64 C27.216,40.648 20.112,41.08 13.392,41.464 C17.76,34.312 21.696,27.016 25.296,18.76 L22.8,17.704 C19.056,26.584 15.12,33.832 10.512,41.656 C8.784,41.8 6.912,41.8 5.184,41.8 L5.808,44.536 C18.24,43.768 27.648,43.24 37.632,41.944 C39.024,43.864 39.984,45.304 41.568,47.656 L43.776,46.024 Z M4.128,29.752 C10.176,21.688 13.344,16.648 17.952,8.2 L15.744,7.096 C11.376,15.208 8.016,20.44 2.16,27.976 L4.128,29.752 Z M93.696,42.856 C93.888,41.176 93.888,39.88 93.936,38.104 L91.536,37.144 C91.488,39.448 91.44,40.84 91.296,42.328 C91.152,43.72 90.768,44.008 89.376,44.056 C88.08,44.104 85.968,44.104 84.864,44.056 C83.328,44.008 83.28,43.72 83.28,42.04 L83.28,32.536 L89.76,32.536 L89.76,5.992 L69.504,5.992 L69.504,32.536 L75.12,32.536 C74.208,39.016 71.184,42.184 63.84,45.64 L65.04,47.704 C71.616,44.728 76.416,40.408 77.28,32.536 L80.976,32.536 L80.976,42.04 C80.976,45.016 81.312,46.12 84.768,46.264 L89.376,46.264 C92.16,46.12 93.456,45.688 93.696,42.856 Z M61.008,11.224 C59.088,8.152 57.888,6.184 55.968,3.64 L54.144,4.936 C56.064,7.48 57.024,9.304 58.944,12.664 L61.008,11.224 Z M67.92,31.72 C65.616,28.888 64.272,27.352 62.064,25.144 L60.576,26.728 C62.688,28.936 63.984,30.424 66.144,33.352 L67.92,31.72 Z M60.336,24.328 C62.976,20.92 65.136,17.32 66.912,12.904 L50.592,12.904 L50.592,15.064 L63.504,15.064 C60.816,21.208 54.576,28.216 49.68,31.912 L51.312,33.832 C53.76,31.768 55.968,29.512 58.032,27.064 L58.032,47.8 L60.336,47.8 L60.336,24.328 Z M87.552,14.008 L71.76,14.008 L71.76,8.104 L87.552,8.104 L87.552,14.008 Z M87.552,21.736 L71.76,21.736 L71.76,16.12 L87.552,16.12 L87.552,21.736 Z M87.552,30.424 L71.76,30.424 L71.76,23.848 L87.552,23.848 L87.552,30.424 Z M141.696,21.88 L141.696,19.72 L125.76,19.72 L125.76,9.064 C131.904,8.296 135.072,8.008 140.352,6.952 L139.008,4.792 C133.728,5.8 130.464,6.376 123.552,7.144 L123.552,26.824 C123.552,33.976 122.4,40.408 118.8,46.024 L120.816,47.224 C124.32,41.608 125.76,34.552 125.76,26.824 L125.76,21.88 L133.632,21.88 L133.632,47.704 L135.936,47.704 L135.936,21.88 L141.696,21.88 Z M120.96,28.072 L111.6,28.072 L111.504,23.368 L109.248,23.368 L109.344,28.072 L99.264,28.072 L99.216,30.28 L107.808,30.28 C105.312,34.312 102.384,37.72 97.92,41.896 L99.648,43.48 C104.016,39.208 106.56,35.944 109.248,31.72 L109.248,47.8 L111.504,47.8 L111.504,30.28 L120.912,30.28 L120.96,28.072 Z M121.776,22.792 L121.776,20.536 L114.72,20.536 C115.68,18.28 116.544,15.832 117.504,12.952 L115.392,12.136 C114.384,15.256 113.616,17.656 112.464,20.536 L108.288,20.536 C107.28,17.512 106.512,15.64 105.264,12.616 L103.248,13.528 C104.352,16.024 105.024,17.992 105.936,20.536 L98.736,20.536 L98.736,22.792 L121.776,22.792 Z M120.24,11.848 L120.24,9.688 L110.592,9.688 L112.224,8.584 C111.024,6.712 109.872,5.176 108.576,3.304 L106.896,4.456 C108.192,6.376 109.2,7.912 110.304,9.688 L99.936,9.688 L99.936,11.848 L120.24,11.848 Z M119.856,39.688 C117.888,36.808 116.256,34.6 114.336,32.152 L112.752,33.4 C114.96,36.232 116.256,38.488 118.032,41.176 L119.856,39.688 Z M182.736,47.272 C185.952,47.272 186.864,46.744 186.864,43.624 L186.864,5.656 L169.968,5.656 L169.968,18.904 L184.608,18.904 L184.608,43.624 C184.608,44.824 184.224,45.016 182.928,45.016 C181.632,45.016 180.096,44.824 178.608,44.584 L178.896,47.032 C180.192,47.176 181.536,47.272 182.736,47.272 Z M175.296,40.84 C177.36,40.648 179.424,40.504 181.728,40.168 L181.488,38.104 C179.52,38.44 177.408,38.632 175.296,38.824 L175.296,24.472 L180.384,24.472 L180.384,22.36 L154.56,22.36 L154.56,24.472 L160.032,24.472 L160.032,40.072 C158.112,40.264 156.144,40.36 153.888,40.504 L154.272,42.856 C161.04,42.28 167.088,41.608 173.088,41.032 L173.088,45.544 L175.296,45.544 L175.296,40.84 Z M165.984,18.904 L165.984,5.656 L148.944,5.656 L148.944,47.8 L151.2,47.8 L151.2,18.904 L165.984,18.904 Z M184.608,11.176 L172.032,11.176 L172.032,7.768 L184.608,7.768 L184.608,11.176 Z M184.608,16.84 L172.032,16.84 L172.032,13.24 L184.608,13.24 L184.608,16.84 Z M163.776,11.176 L151.2,11.176 L151.2,7.768 L163.776,7.768 L163.776,11.176 Z M163.776,16.84 L151.2,16.84 L151.2,13.24 L163.776,13.24 L163.776,16.84 Z M173.088,27.784 L162.144,27.784 L162.144,24.472 L173.088,24.472 L173.088,27.784 Z M173.088,33.592 L162.144,33.592 L162.144,29.896 L173.088,29.896 L173.088,33.592 Z M173.088,38.968 C169.68,39.304 166.128,39.592 162.144,39.928 L162.144,35.656 L173.088,35.656 L173.088,38.968 Z" id="公視新聞" sketch:type="MSShapeGroup"></path>
        </g>
    </g>
</svg>
