<?xml version="1.0" encoding="UTF-8" standalone="no"?>
<svg width="140px" height="35px" viewBox="0 0 140 35" version="1.1" xmlns="http://www.w3.org/2000/svg" xmlns:xlink="http://www.w3.org/1999/xlink" xmlns:sketch="http://www.bohemiancoding.com/sketch/ns">
    <title>Untitled 3</title>
    <description>Created with Sketch (http://www.bohemiancoding.com/sketch)</description>
    <defs></defs>
    <g id="Page-1" stroke="none" stroke-width="1" fill="none" fill-rule="evenodd" sketch:type="MSPage">
        <g sketch:type="MSLayerGroup" transform="translate(0.000000, 1.000000)" id="videos" fill="#000000">
            <g sketch:type="MSShapeGroup">
                <path d="M20.3428571,9.75654545 C23.9771429,6.61145455 26.1371429,4.48090909 29.1542857,0.963818182 L27.9542857,-0.0507272727 C25.04,3.36490909 22.9485714,5.46163636 19.28,8.53909091 L20.3428571,9.75654545 L20.3428571,9.75654545 Z M20.1028571,19.1918182 C24.7657143,15.6747273 27.0628571,13.3412727 30.5257143,9.486 L29.3257143,8.43763636 C25.8628571,12.1914545 23.6,14.4234545 19.0742857,17.8729091 L20.1028571,19.1918182 L20.1028571,19.1918182 Z M20.3085714,13.9161818 L20.3085714,12.3943636 L11.0857143,12.3943636 C10.6742857,11.6841818 10.3657143,11.1430909 9.78285714,10.23 L17.36,10.23 L17.36,1.13290909 L2.58285714,1.13290909 L2.58285714,10.23 L8.51428571,10.23 L8,10.5681818 C8.54857143,11.3798182 8.85714286,11.7518182 9.23428571,12.3943636 L0.114285714,12.3943636 L0.114285714,13.9161818 L20.3085714,13.9161818 L20.3085714,13.9161818 Z M18.7657143,30.5209091 C24.32,26.4627273 27.3714286,23.4190909 31.6571429,18.8198182 L30.4228571,17.7038182 C26.3085714,22.2016364 23.2914286,25.11 17.7371429,29.1681818 L18.7657143,30.5209091 L18.7657143,30.5209091 Z M18.3542857,27.1052727 C16.3657143,25.2114545 15.2342857,24.2645455 13.4857143,22.6412727 L12.5257143,23.7572727 C14.24,25.3805455 15.2342857,26.3612727 17.2228571,28.3227273 L18.3542857,27.1052727 L18.3542857,27.1052727 Z M16.9142857,21.8634545 L16.9142857,15.6747273 L3.09714286,15.6747273 L3.09714286,21.8634545 L9.47428571,21.8634545 L9.47428571,27.6463636 C9.47428571,28.4918182 9.16571429,28.7285455 8.24,28.7285455 C7.17714286,28.7285455 5.94285714,28.6270909 4.57142857,28.458 L4.70857143,30.1150909 C5.80571429,30.2503636 7.17714286,30.3518182 8.24,30.3518182 C10.4,30.3518182 11.0171429,29.7769091 11.0171429,27.6463636 L11.0171429,21.8634545 L16.9142857,21.8634545 L16.9142857,21.8634545 Z M1.62285714,29.2358182 C3.81714286,26.97 4.88,25.854 6.8,23.4190909 L5.56571429,22.506 C3.74857143,24.738 2.75428571,25.7863636 0.491428571,28.1198182 L1.62285714,29.2358182 L1.62285714,29.2358182 Z M15.8514286,4.81909091 L4.12571429,4.81909091 L4.12571429,2.58709091 L15.8514286,2.58709091 L15.8514286,4.81909091 L15.8514286,4.81909091 Z M15.8514286,8.77581818 L4.12571429,8.77581818 L4.12571429,6.30709091 L15.8514286,6.30709091 L15.8514286,8.77581818 L15.8514286,8.77581818 Z M15.4057143,20.4092727 L4.64,20.4092727 L4.64,17.1627273 L15.4057143,17.1627273 L15.4057143,20.4092727 L15.4057143,20.4092727 Z M64.7771429,11.4474545 L64.7771429,9.79036364 L56.2742857,9.79036364 L56.2742857,0.0845454545 L54.56,0.0845454545 L54.56,9.79036364 L43.4171429,9.79036364 L43.4171429,0.862363636 L41.7028571,0.862363636 L41.7028571,14.7954545 C41.7028571,19.902 41.0514286,23.5543636 35.7371429,29.6754545 L37.0742857,30.8929091 C40.4685714,27.2743636 42.4228571,23.5205455 43.1428571,19.0903636 L56.3771429,19.0903636 L56.3771429,30.6223636 L58.1942857,30.6223636 L58.1942857,17.4332727 L43.3828571,17.4332727 C43.3828571,16.8921818 43.4171429,15.1674545 43.4171429,14.7954545 L43.4171429,11.4474545 L64.7771429,11.4474545 L64.7771429,11.4474545 Z" id="影片"></path>
            </g>
        </g>
    </g>
</svg>