<?xml version="1.0" encoding="UTF-8" standalone="no"?>
<svg width="200px" height="50px" viewBox="0 0 200 50" version="1.1" xmlns="http://www.w3.org/2000/svg" xmlns:xlink="http://www.w3.org/1999/xlink" xmlns:sketch="http://www.bohemiancoding.com/sketch/ns">
    <g id="Page-1" stroke="none" stroke-width="1" fill="none" fill-rule="evenodd" sketch:type="MSPage">
        <g id="videos" sketch:type="MSArtboardGroup" fill="#000000">
            <path d="M30.48,17.848 C35.568,13.384 38.592,10.36 42.816,5.368 L41.136,3.928 C37.056,8.776 34.128,11.752 28.992,16.12 L30.48,17.848 Z M30.144,31.24 C36.672,26.248 39.888,22.936 44.736,17.464 L43.056,15.976 C38.208,21.304 35.04,24.472 28.704,29.368 L30.144,31.24 Z M30.432,23.752 L30.432,21.592 L17.52,21.592 C16.944,20.584 16.512,19.816 15.696,18.52 L26.304,18.52 L26.304,5.608 L5.616,5.608 L5.616,18.52 L13.92,18.52 L13.2,19 C13.968,20.152 14.4,20.68 14.928,21.592 L2.16,21.592 L2.16,23.752 L30.432,23.752 Z M28.272,47.32 C36.048,41.56 40.32,37.24 46.32,30.712 L44.592,29.128 C38.832,35.512 34.608,39.64 26.832,45.4 L28.272,47.32 Z M27.696,42.472 C24.912,39.784 23.328,38.44 20.88,36.136 L19.536,37.72 C21.936,40.024 23.328,41.416 26.112,44.2 L27.696,42.472 Z M25.68,35.032 L25.68,26.248 L6.336,26.248 L6.336,35.032 L15.264,35.032 L15.264,43.24 C15.264,44.44 14.832,44.776 13.536,44.776 C12.048,44.776 10.32,44.632 8.4,44.392 L8.592,46.744 C10.128,46.936 12.048,47.08 13.536,47.08 C16.56,47.08 17.424,46.264 17.424,43.24 L17.424,35.032 L25.68,35.032 Z M4.272,45.496 C7.344,42.28 8.832,40.696 11.52,37.24 L9.792,35.944 C7.248,39.112 5.856,40.6 2.688,43.912 L4.272,45.496 Z M24.192,10.84 L7.776,10.84 L7.776,7.672 L24.192,7.672 L24.192,10.84 Z M24.192,16.456 L7.776,16.456 L7.776,12.952 L24.192,12.952 L24.192,16.456 Z M23.568,32.968 L8.496,32.968 L8.496,28.36 L23.568,28.36 L23.568,32.968 Z M92.688,20.248 L92.688,17.896 L80.784,17.896 L80.784,4.12 L78.384,4.12 L78.384,17.896 L62.784,17.896 L62.784,5.224 L60.384,5.224 L60.384,25 C60.384,32.248 59.472,37.432 52.032,46.12 L53.904,47.848 C58.656,42.712 61.392,37.384 62.4,31.096 L80.928,31.096 L80.928,47.464 L83.472,47.464 L83.472,28.744 L62.736,28.744 C62.736,27.976 62.784,25.528 62.784,25 L62.784,20.248 L92.688,20.248 Z" id="影片" sketch:type="MSShapeGroup"></path>
        </g>
    </g>
</svg>
